HIERARCHY
ROOT Hips
{
	OFFSET 0.000000 0.000000 0.000000
	CHANNELS 6 Xposition Yposition Zposition Xrotation Yrotation Zrotation
	JOINT LeftUpLeg_virtual
	{
		OFFSET 0.000000 0.000000 0.000000
		CHANNELS 3 Xrotation Yrotation Zrotation
		JOINT LeftUpLeg
		{
			OFFSET 10.205400 -3.823500 0.155100
			CHANNELS 3 Xrotation Yrotation Zrotation
			JOINT LeftLeg
			{
				OFFSET 0.708757 -12.982077 0.567790
				CHANNELS 3 Xrotation Yrotation Zrotation
				JOINT LeftFoot
				{
					OFFSET -0.708756 -10.717838 -2.184338
					CHANNELS 3 Xrotation Yrotation Zrotation
					JOINT LeftToeBase
					{
						OFFSET 0.108149 -7.191104 7.560241
						CHANNELS 3 Xrotation Yrotation Zrotation
						JOINT LeftToe_End
						{
							OFFSET 0.070230 0.081724 4.490308
							CHANNELS 3 Xrotation Yrotation Zrotation
							End Site
							{
								OFFSET 0 0 0
							}
						}
					}
				}
			}
		}
	}
	JOINT RightUpLeg_virtual
	{
		OFFSET 0.000000 0.000000 0.000000
		CHANNELS 3 Xrotation Yrotation Zrotation
		JOINT RightUpLeg
		{
			OFFSET -10.205400 -3.823500 0.005500
			CHANNELS 3 Xrotation Yrotation Zrotation
			JOINT RightLeg
			{
				OFFSET -0.708756 -12.982134 0.610632
				CHANNELS 3 Xrotation Yrotation Zrotation
				JOINT RightFoot
				{
					OFFSET 0.708754 -10.717769 -1.945823
					CHANNELS 3 Xrotation Yrotation Zrotation
					JOINT RightToeBase
					{
						OFFSET -0.108140 -7.191069 7.372968
						CHANNELS 3 Xrotation Yrotation Zrotation
						JOINT RightToe_End
						{
							OFFSET -0.070227 0.081735 4.479403
							CHANNELS 3 Xrotation Yrotation Zrotation
							End Site
							{
								OFFSET 0 0 0
							}
						}
					}
				}
			}
		}
	}
	JOINT Spine_virtual
	{
		OFFSET 0.000000 0.000000 0.000000
		CHANNELS 3 Xrotation Yrotation Zrotation
		JOINT Spine
		{
			OFFSET 0.000000 6.876099 0.125700
			CHANNELS 3 Xrotation Yrotation Zrotation
			JOINT Spine1
			{
				OFFSET 0.000000 5.730043 0.104720
				CHANNELS 3 Xrotation Yrotation Zrotation
				JOINT Spine1_split
				{
					OFFSET 0.000000 5.730043 0.104720
					CHANNELS 3 Xrotation Yrotation Zrotation
					JOINT Spine2
					{
						OFFSET 0.000000 5.730043 0.104720
						CHANNELS 3 Xrotation Yrotation Zrotation
						JOINT Neck_virtual
						{
							OFFSET 0.000000 0.000000 0.000000
							CHANNELS 3 Xrotation Yrotation Zrotation
							JOINT Neck
							{
								OFFSET 0.000000 10.314075 0.188496
								CHANNELS 3 Xrotation Yrotation Zrotation
								JOINT Head
								{
									OFFSET 0.000000 7.643700 -2.377400
									CHANNELS 3 Xrotation Yrotation Zrotation
									JOINT HeadTop_End
									{
										OFFSET 0.000000 43.788605 -13.619600
										CHANNELS 3 Xrotation Yrotation Zrotation
										End Site
										{
											OFFSET 0 0 0
										}
									}
								}
							}
						}
						JOINT LeftShoulder_virtual
						{
							OFFSET 0.000000 0.000000 0.000000
							CHANNELS 3 Xrotation Yrotation Zrotation
							JOINT LeftShoulder
							{
								OFFSET 2.196100 4.412489 0.087492
								CHANNELS 3 Xrotation Yrotation Zrotation
								JOINT LeftShoulder_split
								{
									OFFSET 2.196100 4.412489 0.087492
									CHANNELS 3 Xrotation Yrotation Zrotation
									JOINT LeftArm
									{
										OFFSET 8.771219 -2.981674 -0.026999
										CHANNELS 3 Xrotation Yrotation Zrotation
										JOINT LeftForeArm
										{
											OFFSET 8.512804 0.000000 -0.000000
											CHANNELS 3 Xrotation Yrotation Zrotation
											JOINT LeftHand
											{
												OFFSET 18.484802 0.000000 -0.000000
												CHANNELS 3 Xrotation Yrotation Zrotation
												End Site
												{
													OFFSET 0 0 0
												}
											}
										}
									}
								}
							}
						}
						JOINT RightShoulder_virtual
						{
							OFFSET 0.000000 0.000000 0.000000
							CHANNELS 3 Xrotation Yrotation Zrotation
							JOINT RightShoulder
							{
								OFFSET -2.196100 4.412496 0.070690
								CHANNELS 3 Xrotation Yrotation Zrotation
								JOINT RightShoulder_split
								{
									OFFSET -2.196100 4.412496 0.070690
									CHANNELS 3 Xrotation Yrotation Zrotation
									JOINT RightArm
									{
										OFFSET -8.771282 -2.981682 -0.094208
										CHANNELS 3 Xrotation Yrotation Zrotation
										JOINT RightForeArm
										{
											OFFSET -8.494598 0.000000 0.000000
											CHANNELS 3 Xrotation Yrotation Zrotation
											JOINT RightHand
											{
												OFFSET -18.483803 0.000000 0.000001
												CHANNELS 3 Xrotation Yrotation Zrotation
												End Site
												{
													OFFSET 0 0 0
												}
											}
										}
									}
								}
							}
						}
					}
				}
			}
		}
	}
}
MOTION
Frames: 8
Frame Time: 0.03333333
4.171359 22.877516 23.946815 0.000000 0.000000 0.000000 -14.609853 -44.183275 -8.355348 -50.404064 -17.783600 39.360256 62.299371 -11.874198 3.869087 -2.110239 -13.536860 -39.066404 -3.251580 0.630050 1.301647 0.000000 0.000000 0.000000 -15.854027 -40.439467 -7.942474 -13.063565 1.090612 -58.266063 82.350730 24.382821 -6.408030 -16.178715 -9.962675 26.970595 -20.938247 -1.929777 8.814097 0.000000 0.000000 0.000000 -14.990722 -39.357705 -9.926059 26.505183 3.388049 -9.595575 -0.243420 0.955503 0.659570 1.251427 -2.525105 1.400326 0.000000 0.000000 0.000000 0.877883 0.902714 1.130440 1.889189 13.883021 1.157716 1.243211 22.879633 -5.463937 0.000000 0.000000 0.000000 0.303384 0.958659 1.098858 1.242398 2.341838 -9.230780 -0.002918 -2.205148 1.904622 -58.488023 3.871922 -43.097783 -177.965729 -66.310386 -176.870863 0.000000 0.000000 0.000000 -0.109940 0.604611 0.970978 3.405398 11.673364 -3.236009 -7.843325 -1.980456 1.485479 -46.144181 21.866504 85.928513 -172.642348 66.312264 171.243470 0.000000 0.000000 0.000000 
3.948617 23.043512 22.737152 0.000000 0.000000 0.000000 -14.276630 -44.200511 -6.746361 -47.489363 -16.909228 39.408576 54.002737 -12.297689 3.590762 3.242253 -14.369600 -40.976859 -2.709701 0.676566 1.052898 0.000000 0.000000 0.000000 -16.319827 -39.913720 -6.602919 -10.969442 -1.145724 -58.705414 81.624982 24.022689 -7.170761 -25.287712 -14.525862 30.525584 -17.298888 -0.588324 5.613324 0.000000 0.000000 0.000000 -15.844343 -39.921773 -9.107670 25.208005 4.543506 -8.693816 0.321894 1.104752 -0.041180 0.642694 -2.214059 1.481901 0.000000 0.000000 0.000000 1.287273 1.015110 0.452085 2.296078 13.743201 0.677639 3.574521 22.306469 -5.810084 0.000000 0.000000 0.000000 0.954551 1.099537 0.432525 1.122691 3.661350 -9.179880 0.025380 -3.747907 2.076504 -57.186442 3.815868 -44.393651 -178.657750 -64.520836 -177.037779 0.000000 0.000000 0.000000 0.467595 0.714921 0.194969 3.278418 12.406425 -2.989099 -7.996192 -0.954741 0.849535 -47.574330 20.160978 86.730869 -170.990330 68.844332 170.019596 0.000000 0.000000 0.000000 
3.661767 23.413755 21.425344 0.000000 0.000000 0.000000 -12.868857 -43.539106 -4.626026 -46.037203 -15.606193 38.913965 46.085137 -11.596260 3.193288 7.615782 -14.886068 -39.565913 -2.342521 0.590115 0.698153 0.000000 0.000000 0.000000 -15.387527 -38.752000 -4.672048 -7.514260 -4.533425 -56.877509 79.489981 22.247950 -7.078761 -37.076323 -19.654494 28.233608 -11.060872 0.268119 3.510670 0.000000 0.000000 0.000000 -15.624191 -39.900329 -7.449112 23.901830 5.552491 -7.950457 0.836156 1.207761 -0.788151 0.067861 -1.804477 1.580321 0.000000 0.000000 0.000000 1.625661 1.115612 -0.310439 2.652258 13.421934 0.305004 5.167500 21.169020 -5.704364 0.000000 0.000000 0.000000 1.537999 1.203702 -0.258626 1.062717 4.513620 -8.901225 -0.068792 -4.623969 1.750584 -56.745051 2.787685 -45.284919 -179.804320 -63.043507 -177.711987 0.000000 0.000000 0.000000 0.997875 0.807555 -0.628564 3.188323 13.312511 -3.385331 -7.301779 0.512531 0.340837 -48.760164 18.538412 86.856900 -170.094469 69.372531 169.333463 0.000000 0.000000 0.000000 
3.343799 23.936535 20.003788 0.000000 0.000000 0.000000 -11.032569 -42.781286 -2.716664 -46.084075 -13.909822 37.947315 41.465805 -10.437505 3.129986 9.603432 -14.752094 -35.764418 -2.815349 0.338530 0.567154 0.000000 0.000000 0.000000 -13.633956 -37.624865 -2.852777 -4.435503 -7.972284 -53.096484 76.670861 19.507338 -6.100752 -47.559461 -23.025290 22.267909 -5.115092 0.664025 2.282993 0.000000 0.000000 0.000000 -14.575199 -39.817947 -5.511704 22.626255 6.281989 -7.346905 1.260619 1.244364 -1.371030 -0.022681 -1.295233 1.532257 0.000000 0.000000 0.000000 1.827751 1.181388 -0.920246 2.907477 13.021387 -0.070886 5.779505 19.823822 -5.418518 0.000000 0.000000 0.000000 1.952983 1.248200 -0.781356 1.063230 4.824995 -8.546079 -0.310389 -4.432155 1.011247 -57.076831 1.579287 -45.602817 178.723115 -62.392316 -178.842343 0.000000 0.000000 0.000000 1.406929 0.875046 -1.255976 3.151701 14.121933 -4.489032 -6.152902 1.650121 0.301517 -50.159157 17.189752 86.093148 -170.598045 67.644226 169.893415 0.000000 0.000000 0.000000 
3.053030 24.601883 18.533440 0.000000 0.000000 0.000000 -9.155314 -42.461889 -1.320439 -47.403876 -11.915098 36.593326 42.141441 -10.010233 3.342366 8.784767 -14.502783 -31.760533 -4.326116 -0.024746 1.106943 0.000000 0.000000 0.000000 -11.563303 -37.184376 -1.531971 -3.507519 -10.341331 -48.456555 73.407622 17.152128 -4.574541 -52.308966 -24.254143 18.429623 -2.683182 0.755538 1.465640 0.000000 0.000000 0.000000 -12.757818 -39.912473 -3.665282 21.430410 6.741544 -6.851060 1.568580 1.223092 -1.626869 0.059667 -0.911424 1.462621 0.000000 0.000000 0.000000 1.887151 1.210840 -1.186966 2.983179 12.722184 -0.521680 5.396412 18.652442 -5.255271 0.000000 0.000000 0.000000 2.181455 1.231347 -0.991985 1.081494 4.619932 -8.239136 -0.685358 -3.418600 -0.138756 -58.132375 0.760361 -45.377366 177.115630 -62.779356 179.700610 0.000000 0.000000 0.000000 1.641195 0.892411 -1.501612 3.143412 14.718132 -5.802880 -5.206488 2.108484 0.664457 -51.811117 16.131599 84.724535 -172.116041 64.722142 171.403952 0.000000 0.000000 0.000000 
2.804055 25.416445 17.055519 0.000000 0.000000 0.000000 -7.613852 -42.800462 -0.686309 -49.146903 -9.194364 34.612349 47.998485 -10.117145 3.568212 5.282870 -14.194923 -28.089839 -6.372273 -0.457204 2.272577 0.000000 0.000000 0.000000 -9.344830 -37.956263 -0.836360 -5.600584 -11.553038 -43.439074 69.765943 15.624490 -2.787781 -50.668331 -24.086843 18.592209 -3.947075 0.676635 0.760627 0.000000 0.000000 0.000000 -10.506544 -40.525852 -2.398435 20.311463 6.965939 -6.448077 1.752721 1.177287 -1.529713 0.386919 -0.633696 1.268013 0.000000 0.000000 0.000000 1.849341 1.211134 -1.064005 2.919947 12.574739 -1.060104 4.193454 17.844390 -5.372255 0.000000 0.000000 0.000000 2.242690 1.179734 -0.867898 1.103743 3.995493 -8.012388 -1.072750 -2.022949 -1.259257 -59.742497 0.501505 -44.856386 175.588304 -63.904862 178.099409 0.000000 0.000000 0.000000 1.720811 0.879282 -1.327449 3.160875 15.041330 -6.960233 -4.536046 1.743861 1.165250 -53.399679 15.567613 83.253736 -173.713636 62.164844 173.012271 0.000000 0.000000 0.000000 
2.632123 26.382835 15.551662 0.000000 0.000000 0.000000 -6.259302 -43.837640 -0.796808 -49.980729 -5.646972 31.756452 56.930610 -9.919417 3.711983 -0.486543 -13.249306 -24.415654 -7.971219 -0.901647 3.727381 0.000000 0.000000 0.000000 -7.307370 -40.083573 -0.822930 -9.925617 -12.519086 -38.110144 65.849533 14.285109 -0.628437 -45.550999 -22.604200 20.077570 -5.736868 0.567173 0.117983 0.000000 0.000000 0.000000 -7.959317 -41.842063 -1.818383 19.269149 7.034264 -6.110579 1.814379 1.153755 -1.184727 0.788122 -0.387234 1.001315 0.000000 0.000000 0.000000 1.765436 1.200286 -0.658741 2.791462 12.599484 -1.625152 2.592775 17.461532 -5.803588 0.000000 0.000000 0.000000 2.180678 1.128532 -0.523199 1.085625 3.200515 -7.776052 -1.356922 -0.813957 -1.824392 -61.667312 0.814147 -44.148000 174.499790 -65.222747 176.726200 0.000000 0.000000 0.000000 1.708436 0.872488 -0.865432 3.249053 15.141315 -7.678803 -4.237698 0.966212 1.606861 -54.720771 15.501942 82.136180 -175.078594 60.947315 174.411175 0.000000 0.000000 0.000000 
2.519006 27.445629 14.019243 0.000000 0.000000 0.000000 -4.855206 -45.385630 -1.268360 -48.933220 -1.607597 28.280219 65.793170 -9.126932 3.548526 -7.633264 -11.410441 -20.607183 -8.361898 -1.158102 4.922397 0.000000 0.000000 0.000000 -5.316151 -43.183195 -1.055918 -15.062780 -13.772117 -32.637390 61.629289 12.488563 1.854775 -40.353536 -20.106255 20.182196 -5.000492 0.490959 -0.384158 0.000000 0.000000 0.000000 -5.349011 -43.699946 -1.752582 18.232092 7.025212 -5.826707 1.749225 1.160165 -0.759128 0.927004 -0.295633 0.837437 0.000000 0.000000 0.000000 1.684101 1.196166 -0.158740 2.675203 12.770249 -2.091149 1.067536 17.496131 -6.415584 0.000000 0.000000 0.000000 2.029798 1.099266 -0.116769 1.011636 2.414992 -7.411438 -1.422997 -0.015446 -1.937072 -63.973915 1.312196 -43.379648 174.143541 -66.444941 175.918216 0.000000 0.000000 0.000000 1.625638 0.879714 -0.328717 3.402053 15.096876 -7.887054 -4.198616 0.311052 1.727568 -55.920828 16.057092 81.778306 -176.154226 60.998971 175.580217 0.000000 0.000000 0.000000 
